:SAMPLES-PER-SECOND 30
:FULLY-SPECIFIED
:DEGREES
368
root  42.2498 39.1145 0.942664 -85.4598 -83.6398 79.6443
RightUpLeg  -23.9913 -11.8455 -4.28418
RightLeg  33.3347 -1.3593 -1.40697
RightFoot  -2.42061 -0.502835 6.1945
RightToes  0.000482159 0.542163 -0.142577
Spine  20.3819 -2.17565 -7.63928
Spine1  9.03748 -5.81454 7.53868
HEad  -3.91223 4.44499 -0.724365
LeftShoulder1  8.91728 -15.8988 -39.7183
LeftArm  4.91984 -18.6447 -46.4251
LeftForeArm  20.4633 -54.1496 -13.92
LeftHand  -0.25398 0.0180481 5.50724
RightShoulder  4.6418 9.05427 31.0136
RightArm  -9.99143 -20.5932 29.6403
RightForeArm  7.76107 77.1919 75.5412
RightHand  -0.74481 -1.97795 -24.75
LeftUpLeg  5.27258 14.9431 -7.13632
LeftLeg  16.9075 10.1836 -0.591626
LeftFoot  -14.6934 0.169736 2.8008
LeftToes  1.06247e-005 4.65854e-005 -8.18501e-006
369
root  40.4072 39.0291 1.40878 -79.0242 -83.3006 73.3223
RightUpLeg  -22.8844 -14.8133 -2.10577
RightLeg  18.9556 -3.24077 -0.29251
RightFoot  -3.79997 -0.466819 6.65575
RightToes  0.000482159 0.542163 -0.142577
Spine  19.381 -2.59276 -8.94409
Spine1  9.36348 -6.74548 8.78271
HEad  -3.5608 4.74281 -0.23558
LeftShoulder1  8.81656 -15.7933 -39.462
LeftArm  4.94727 -19.3052 -46.6573
LeftForeArm  20.2466 -53.7096 -13.6944
LeftHand  -0.25398 0.0180481 5.50724
RightShoulder  4.56823 8.85585 31.0115
RightArm  -10.3888 -20.8352 30.1215
RightForeArm  11.7453 77.412 80.8626
RightHand  -1.3573 0.346942 -27.1835
LeftUpLeg  9.13963 10.5561 -7.75514
LeftLeg  14.9867 13.989 -1.7112
LeftFoot  -15.9685 0.175407 1.96847
LeftToes  1.06247e-005 4.65854e-005 -8.18501e-006
370
root  38.5169 38.869 1.82477 -70.4065 -82.7247 64.7162
RightUpLeg  -20.3152 -10.5563 -3.70576
RightLeg  4.40466 -11.6639 3.76837
RightFoot  -4.3313 -0.417049 6.31116
RightToes  0.000482159 0.542163 -0.142577
Spine  18.5093 -3.01367 -10.1295
Spine1  9.68502 -7.72245 10.1771
HEad  -2.95202 4.37242 0.272635
LeftShoulder1  8.76944 -15.7668 -39.2891
LeftArm  5.36193 -19.912 -46.9789
LeftForeArm  19.7903 -52.9622 -13.3308
LeftHand  -0.25398 0.0180481 5.50724
RightShoulder  4.43687 8.54883 30.8613
RightArm  -11.0741 -21.897 30.9305
RightForeArm  18.608 77.5513 88.4356
RightHand  -1.80363 1.79845 -28.8275
LeftUpLeg  13.3222 7.99466 -8.29601
LeftLeg  12.8033 15.2701 -2.82344
LeftFoot  -16.8479 0.13577 0.725239
LeftToes  1.06247e-005 4.65854e-005 -8.18501e-006
371
root  36.5213 38.5145 2.24262 -66.5132 -81.9403 60.8221
RightUpLeg  -19.0238 -7.12095 -4.93837
RightLeg  -4.99983 -15.4865 7.22461
RightFoot  -5.1667 -0.464497 8.05703
RightToes  0.000482159 0.542163 -0.142577
Spine  17.5633 -3.29753 -11.1277
Spine1  9.78507 -8.26781 10.9164
HEad  -2.47813 3.50189 0.546415
LeftShoulder1  8.687 -15.6495 -39.1449
LeftArm  6.35049 -20.6352 -47.5117
LeftForeArm  19.2454 -52.0025 -12.8798
LeftHand  -0.25398 0.0180481 5.50724
RightShoulder  4.31132 8.29586 30.5837
RightArm  -11.9556 -23.5632 31.7597
RightForeArm  27.5285 77.4398 97.6885
RightHand  -2.0467 2.45751 -29.9104
LeftUpLeg  16.8155 7.56529 -8.74841
LeftLeg  12.6396 14.1432 -3.22625
LeftFoot  -17.699 0.0688782 -0.670783
LeftToes  1.06247e-005 4.65854e-005 -8.18501e-006
372
root  34.4488 38.1153 2.68651 -64.5914 -81.809 58.76
RightUpLeg  -19.789 -6.90216 -4.1507
RightLeg  -4.25323 -14.6694 7.36998
RightFoot  -7.23559 -0.415064 10.0146
RightToes  0.000482159 0.542163 -0.142577
Spine  16.8034 -3.59513 -10.8285
Spine1  10.086 -8.52759 10.9878
HEad  -2.64386 2.71664 0.48718
LeftShoulder1  8.54216 -15.433 -38.911
LeftArm  7.75688 -21.4449 -48.1502
LeftForeArm  18.7366 -51.1086 -12.4788
LeftHand  -0.25398 0.0180481 5.50724
RightShoulder  4.23702 8.17717 30.3151
RightArm  -12.8902 -25.4328 32.368
RightForeArm  36.6859 77.0195 106.642
RightHand  -2.29252 3.15114 -30.7567
LeftUpLeg  19.9923 9.63925 -7.77985
LeftLeg  14.1167 10.861 -2.89628
LeftFoot  -18.2752 -0.0300294 -2.28406
LeftToes  1.06247e-005 4.65854e-005 -8.18501e-006
373
root  32.3211 37.7869 3.14205 -58.3491 -82.3014 52.658
RightUpLeg  -21.4065 -7.28687 -2.0997
RightLeg  2.23374 -14.1203 5.79455
RightFoot  -7.89351 -0.299527 8.19412
RightToes  0.000482159 0.542163 -0.142577
Spine  15.9327 -4.21249 -8.97515
Spine1  10.7511 -9.00463 10.9196
HEad  -3.00931 2.35859 -0.0179927
LeftShoulder1  8.43124 -15.2549 -38.7565
LeftArm  9.32021 -21.8038 -48.6813
LeftForeArm  18.1935 -50.4508 -12.2088
LeftHand  -0.25398 0.0180481 5.50724
RightShoulder  4.1837 8.08223 30.1495
RightArm  -13.6463 -27.6504 32.5333
RightForeArm  45.3192 76.3822 114.297
RightHand  -2.47636 3.73192 -31.1055
LeftUpLeg  23.1251 15.2954 -3.75037
LeftLeg  16.2576 3.69201 -2.32423
LeftFoot  -18.1331 -0.18941 -4.97885
LeftToes  1.06247e-005 4.65854e-005 -8.18501e-006
374
root  30.1247 37.5332 3.5776 -45.9161 -82.8642 40.4102
RightUpLeg  -23.9584 -12.0484 2.63052
RightLeg  11.1755 -9.38495 2.08805
RightFoot  -5.50485 -0.120876 2.12593
RightToes  0.000482159 0.542163 -0.142577
Spine  15.3873 -5.13425 -6.16274
Spine1  10.8375 -9.63894 11.0537
HEad  -2.78741 2.14443 -0.995862
LeftShoulder1  8.44423 -15.1795 -38.9965
LeftArm  10.8784 -21.331 -49.105
LeftForeArm  17.5596 -49.8894 -11.9989
LeftHand  -0.25398 0.0180481 5.50724
RightShoulder  4.13267 7.9562 30.1004
RightArm  -14.1038 -30.454 32.0752
RightForeArm  52.7474 75.6467 120.425
RightHand  -2.43864 3.69699 -30.761
LeftUpLeg  25.6057 21.831 2.56674
LeftLeg  20.1405 -5.41985 -2.12675
LeftFoot  -15.7191 -0.240955 -9.18152
LeftToes  1.06247e-005 4.65854e-005 -8.18501e-006
375
root  27.9824 37.3787 3.9706 -32.435 -83.5518 26.8988
RightUpLeg  -26.5384 -15.7513 7.30039
RightLeg  19.2035 -4.58033 -1.60334
RightFoot  -1.50669 0.42909 -5.1626
RightToes  0.000482159 0.542163 -0.142577
Spine  16.0112 -5.82888 -3.06366
Spine1  9.96177 -9.94659 11.3639
HEad  -2.23814 1.97126 -2.10259
LeftShoulder1  8.54281 -15.1454 -39.5786
LeftArm  12.2889 -20.6222 -49.5721
LeftForeArm  16.9415 -49.197 -11.7343
LeftHand  -0.25398 0.0180481 5.50724
RightShoulder  4.12953 7.94427 30.1106
RightArm  -14.4757 -33.2516 31.2106
RightForeArm  57.8924 74.9907 124.652
RightHand  -2.32757 3.46193 -30.1731
LeftUpLeg  24.145 20.6691 5.57949
LeftLeg  27.8289 -6.04638 -3.02766
LeftFoot  -7.76188 0.457409 -12.96
LeftToes  1.06247e-005 4.65854e-005 -8.18501e-006
376
root  26.0444 37.1533 4.30561 -18.3581 -84.2599 12.6144
RightUpLeg  -27.9802 -13.0164 8.27795
RightLeg  26.9252 -6.46922 -3.87522
RightFoot  -0.216001 0.963643 -10.0106
RightToes  0.000482159 0.542163 -0.142577
Spine  17.5557 -6.30939 -0.297176
Spine1  9.20508 -9.97691 11.89
HEad  -2.18562 1.804 -2.62916
LeftShoulder1  8.64787 -15.1411 -40.1231
LeftArm  13.4684 -20.8704 -50.0075
LeftForeArm  16.3884 -48.3606 -11.4101
LeftHand  -0.25398 0.0180481 5.50724
RightShoulder  4.19417 8.12381 30.1098
RightArm  -15.1029 -34.9208 30.5884
RightForeArm  60.6056 74.5567 127.015
RightHand  -2.38092 3.72218 -29.9969
LeftUpLeg  18.4249 17.6407 6.69987
LeftLeg  39.8304 -3.89222 -3.04412
LeftFoot  5.68546 2.00674 -13.743
LeftToes  1.06247e-005 4.65854e-005 -8.18501e-006
377
root  24.3887 36.7975 4.56543 -1.97274 -84.2739 -3.66083
RightUpLeg  -29.1649 -12.0637 9.39087
RightLeg  33.9636 -7.61893 -5.73376
RightFoot  -3.00558 0.857978 -11.9613
RightToes  0.000482159 0.542163 -0.142577
Spine  18.5777 -6.90876 1.90003
Spine1  9.94281 -10.2468 12.7572
HEad  -2.50408 1.49456 -2.15806
LeftShoulder1  8.77344 -15.2583 -40.4808
LeftArm  14.5464 -22.5705 -50.1439
LeftForeArm  15.7117 -47.4198 -11.0637
LeftHand  -0.25398 0.0180481 5.50724
RightShoulder  4.25816 8.29787 30.1202
RightArm  -15.913 -34.9656 30.6024
RightForeArm  61.4631 74.3725 127.924
RightHand  -2.59283 4.3966 -30.4068
LeftUpLeg  9.83065 13.3602 6.3771
LeftLeg  52.9539 -1.11302 -1.07819
LeftFoot  16.9905 2.96124 -12.1396
LeftToes  1.06247e-005 4.65854e-005 -8.18501e-006
378
root  22.742 36.6549 4.77934 11.5561 -84.3788 -17.2679
RightUpLeg  -28.2771 -12.2535 10.3914
RightLeg  38.2083 -7.60572 -6.65269
RightFoot  -7.42444 0.358325 -11.7763
RightToes  0.000482159 0.542163 -0.142577
Spine  19.3852 -7.1631 3.43035
Spine1  11.0906 -10.3387 13.461
HEad  -2.13653 0.919149 -0.984076
LeftShoulder1  8.95527 -15.4862 -40.8532
LeftArm  15.6228 -25.015 -49.9539
LeftForeArm  14.7326 -46.128 -10.6148
LeftHand  -0.25398 0.0180481 5.50724
RightShoulder  4.27929 8.30218 30.289
RightArm  -16.3798 -33.8119 30.9219
RightForeArm  60.2429 74.5192 127.152
RightHand  -2.8475 5.09422 -31.1439
LeftUpLeg  1.54332 9.50046 5.94254
LeftLeg  64.1105 0.942363 2.7913
LeftFoot  19.4458 2.34169 -8.85805
LeftToes  1.06247e-005 4.65854e-005 -8.18501e-006
379
root  20.9238 36.9326 4.96494 19.7934 -85.9101 -25.4767
RightUpLeg  -25.4612 -11.6432 9.96953
RightLeg  39.3826 -6.94721 -6.37431
RightFoot  -10.7702 -0.0191303 -10.8573
RightToes  0.000482159 0.542163 -0.142577
Spine  19.5808 -6.66649 3.51206
Spine1  11.7118 -9.8309 13.3961
HEad  -0.641332 0.326348 0.175967
LeftShoulder1  9.08623 -15.595 -41.2452
LeftArm  16.508 -27.196 -49.7873
LeftForeArm  13.5668 -44.1167 -9.93611
LeftHand  -0.25398 0.0180481 5.50724
RightShoulder  4.33206 8.31662 30.6956
RightArm  -16.2529 -32.0797 31.1546
RightForeArm  56.28 75.1046 123.88
RightHand  -3.14372 5.88332 -31.9409
LeftUpLeg  -5.64371 7.4718 4.82135
LeftLeg  71.1333 2.14039 7.81212
LeftFoot  15.441 0.818319 -3.77642
LeftToes  1.06247e-005 4.65854e-005 -8.18501e-006
380
root  19.0649 37.3704 5.13162 19.486 -88.9079 -24.9246
RightUpLeg  -22.0121 -9.86444 8.70034
RightLeg  39.046 -6.23401 -5.691
RightFoot  -12.883 -0.225907 -10.2508
RightToes  0.000482159 0.542163 -0.142577
Spine  19.4941 -5.8586 2.89366
Spine1  11.7204 -8.87981 12.6285
HEad  1.20247 0.220996 0.79674
LeftShoulder1  8.99547 -15.3963 -41.2635
LeftArm  16.8993 -28.7122 -49.8849
LeftForeArm  12.4703 -41.4595 -9.08127
LeftHand  -0.25398 0.0180481 5.50724
RightShoulder  4.48088 8.5645 31.1812
RightArm  -15.8291 -30.0963 31.4447
RightForeArm  50.2954 75.9393 118.221
RightHand  -3.49957 6.88349 -32.6305
LeftUpLeg  -11.857 6.75417 3.44555
LeftLeg  73.7197 2.75474 11.606
LeftFoot  10.0613 -0.104317 0.170634
LeftToes  1.06247e-005 4.65854e-005 -8.18501e-006
381
root  17.215 37.7951 5.28133 172.598 -87.5372 -177.617
RightUpLeg  -18.3707 -7.96813 7.35234
RightLeg  37.8991 -5.44991 -4.82752
RightFoot  -14.8697 -0.40405 -9.84807
RightToes  0.000482159 0.542163 -0.142577
Spine  19.3164 -5.16455 2.20272
Spine1  11.364 -8.00255 11.7793
HEad  2.47535 0.803904 0.798265
LeftShoulder1  8.72549 -15.0149 -40.8168
LeftArm  16.7706 -29.6434 -49.891
LeftForeArm  11.4808 -38.8381 -8.30346
LeftHand  -0.25398 0.0180481 5.50724
RightShoulder  4.66965 8.94646 31.5622
RightArm  -15.4001 -28.063 31.9808
RightForeArm  44.3094 76.6344 111.947
RightHand  -3.81077 7.75839 -33.1442
LeftUpLeg  -17.3145 6.28101 2.36616
LeftLeg  72.6813 3.19507 12.4339
LeftFoot  6.26915 -0.302042 1.68042
LeftToes  1.06247e-005 4.65854e-005 -8.18501e-006
382
root  15.3371 38.254 5.38968 -172.638 -84.3216 168.077
RightUpLeg  -14.3385 -6.54904 5.77879
RightLeg  35.6963 -4.28258 -3.58326
RightFoot  -16.7059 -0.542598 -9.15661
RightToes  0.000482159 0.542163 -0.142577
Spine  19.0581 -4.55775 1.10126
Spine1  10.8003 -7.43512 11.248
HEad  3.07797 1.81052 0.425344
LeftShoulder1  8.50365 -14.7331 -40.3586
LeftArm  16.3528 -30.064 -49.2648
LeftForeArm  10.5067 -36.9831 -7.80911
LeftHand  -0.25398 0.0180481 5.50724
RightShoulder  4.81102 9.2252 31.853
RightArm  -14.9232 -26.1308 32.5856
RightForeArm  38.9717 77.0743 106.358
RightHand  -3.98267 8.16959 -33.5632
LeftUpLeg  -21.8364 5.902 1.47559
LeftLeg  68.5523 3.78786 11.3508
LeftFoot  3.17188 -0.270687 1.96008
LeftToes  1.06247e-005 4.65854e-005 -8.18501e-006
